<svg xmlns="http://www.w3.org/2000/svg" width="209.49999999999997" height="35" viewBox="0 0 209.49999999999997 35"><rect class="svg__rect" x="0" y="0" width="141.64" height="35" fill="#FCBB57"/><rect class="svg__rect" x="139.64" y="0" width="69.85999999999999" height="35" fill="#FF623B"/><path class="svg__text" d="M15.60 22L13.63 13.47L15.10 13.47L16.43 19.88L18.06 13.47L19.30 13.47L20.91 19.89L22.22 13.47L23.69 13.47L21.72 22L20.31 22L18.68 15.77L17.02 22L15.60 22ZM29.25 22L27.76 22L27.76 13.47L30.76 13.47Q32.24 13.47 33.04 14.13Q33.85 14.79 33.85 16.05L33.85 16.05Q33.85 16.90 33.43 17.48Q33.02 18.06 32.28 18.37L32.28 18.37L34.20 21.92L34.20 22L32.61 22L30.90 18.71L29.25 18.71L29.25 22ZM29.25 14.66L29.25 17.52L30.77 17.52Q31.52 17.52 31.94 17.15Q32.36 16.77 32.36 16.11L32.36 16.11Q32.36 15.43 31.97 15.05Q31.58 14.68 30.81 14.66L30.81 14.66L29.25 14.66ZM39.81 22L38.33 22L38.33 13.47L39.81 13.47L39.81 22ZM46.30 14.66L43.66 14.66L43.66 13.47L50.43 13.47L50.43 14.66L47.77 14.66L47.77 22L46.30 22L46.30 14.66ZM55.87 14.66L53.23 14.66L53.23 13.47L60.00 13.47L60.00 14.66L57.34 14.66L57.34 22L55.87 22L55.87 14.66ZM69.33 22L63.75 22L63.75 13.47L69.29 13.47L69.29 14.66L65.23 14.66L65.23 17.02L68.74 17.02L68.74 18.19L65.23 18.19L65.23 20.82L69.33 20.82L69.33 22ZM75.01 22L73.53 22L73.53 13.47L75.01 13.47L78.82 19.54L78.82 13.47L80.29 13.47L80.29 22L78.81 22L75.01 15.95L75.01 22ZM92.39 22L90.42 13.47L91.89 13.47L93.22 19.88L94.85 13.47L96.09 13.47L97.70 19.89L99.01 13.47L100.48 13.47L98.52 22L97.10 22L95.47 15.77L93.82 22L92.39 22ZM106.12 22L104.64 22L104.64 13.47L106.12 13.47L106.12 22ZM112.61 14.66L109.98 14.66L109.98 13.47L116.74 13.47L116.74 14.66L114.08 14.66L114.08 22L112.61 22L112.61 14.66ZM121.98 22L120.50 22L120.50 13.47L121.98 13.47L121.98 17.02L125.80 17.02L125.80 13.47L127.27 13.47L127.27 22L125.80 22L125.80 18.21L121.98 18.21L121.98 22Z" fill="#FFFFFF"/><path class="svg__text" d="M160.21 22L153.83 22L153.83 13.60L156.21 13.60L156.21 20.11L160.21 20.11L160.21 22ZM164.20 17.80L164.20 17.80Q164.20 16.55 164.81 15.55Q165.41 14.56 166.48 14.00Q167.54 13.43 168.87 13.43L168.87 13.43Q170.20 13.43 171.26 14.00Q172.33 14.56 172.93 15.55Q173.54 16.55 173.54 17.80L173.54 17.80Q173.54 19.05 172.93 20.04Q172.33 21.04 171.27 21.60Q170.20 22.17 168.87 22.17L168.87 22.17Q167.54 22.17 166.48 21.60Q165.41 21.04 164.81 20.04Q164.20 19.05 164.20 17.80ZM166.60 17.80L166.60 17.80Q166.60 18.51 166.90 19.05Q167.20 19.60 167.72 19.90Q168.24 20.20 168.87 20.20L168.87 20.20Q169.51 20.20 170.02 19.90Q170.54 19.60 170.84 19.05Q171.14 18.51 171.14 17.80L171.14 17.80Q171.14 17.09 170.84 16.54Q170.54 16 170.02 15.70Q169.51 15.40 168.87 15.40L168.87 15.40Q168.23 15.40 167.72 15.70Q167.20 16 166.90 16.54Q166.60 17.09 166.60 17.80ZM180.85 22L177.26 13.60L179.83 13.60L182.11 19.07L184.44 13.60L186.79 13.60L183.19 22L180.85 22ZM197.69 22L190.94 22L190.94 13.60L197.53 13.60L197.53 15.44L193.30 15.44L193.30 16.85L197.03 16.85L197.03 18.63L193.30 18.63L193.30 20.17L197.69 20.17L197.69 22Z" fill="#FFFFFF" x="152.64"/></svg>